<?xml version="1.0" encoding="UTF-8" standalone="no"?>
<!-- Generator: Adobe Illustrator 21.0.2, SVG Export Plug-In . SVG Version: 6.00 Build 0)  -->

<svg
   xmlns:dc="http://purl.org/dc/elements/1.1/"
   xmlns:cc="http://creativecommons.org/ns#"
   xmlns:rdf="http://www.w3.org/1999/02/22-rdf-syntax-ns#"
   xmlns:svg="http://www.w3.org/2000/svg"
   xmlns="http://www.w3.org/2000/svg"
   xmlns:sodipodi="http://sodipodi.sourceforge.net/DTD/sodipodi-0.dtd"
   xmlns:inkscape="http://www.inkscape.org/namespaces/inkscape"
   version="1.2"
   id="Layer_1"
   x="0px"
   y="0px"
   viewBox="0 0 64 64"
   overflow="scroll"
   xml:space="preserve"
   sodipodi:docname="gcsd-mail.svg"
   inkscape:version="0.92.3 (2405546, 2018-03-11)"><metadata
   id="metadata37"><rdf:RDF><cc:Work
       rdf:about=""><dc:format>image/svg+xml</dc:format><dc:type
         rdf:resource="http://purl.org/dc/dcmitype/StillImage" /><dc:title></dc:title></cc:Work></rdf:RDF></metadata><defs
   id="defs35"><filter
     style="color-interpolation-filters:sRGB;"
     inkscape:label="Drop Shadow"
     id="filter1517"><feFlood
       flood-opacity="1"
       flood-color="rgb(218,113,0)"
       result="flood"
       id="feFlood1507" /><feComposite
       in="flood"
       in2="SourceGraphic"
       operator="in"
       result="composite1"
       id="feComposite1509" /><feGaussianBlur
       in="composite1"
       stdDeviation="0.6"
       result="blur"
       id="feGaussianBlur1511" /><feOffset
       dx="0"
       dy="0"
       result="offset"
       id="feOffset1513" /><feComposite
       in="SourceGraphic"
       in2="offset"
       operator="over"
       result="composite2"
       id="feComposite1515" /></filter></defs><sodipodi:namedview
   pagecolor="#ffffff"
   bordercolor="#666666"
   borderopacity="1"
   objecttolerance="10"
   gridtolerance="10"
   guidetolerance="10"
   inkscape:pageopacity="0"
   inkscape:pageshadow="2"
   inkscape:window-width="1920"
   inkscape:window-height="1026"
   id="namedview33"
   showgrid="false"
   inkscape:zoom="7.375"
   inkscape:cx="10.099153"
   inkscape:cy="40.402481"
   inkscape:window-x="0"
   inkscape:window-y="28"
   inkscape:window-maximized="1"
   inkscape:current-layer="Layer_1" />
<path
   fill="#EAEAEA"
   d="M53,50H11c-1.657,0-3-1.343-3-3V17c0-1.657,1.343-3,3-3h42c1.657,0,3,1.343,3,3v30  C56,48.657,54.657,50,53,50z"
   id="path2"
   style="fill:#dbf1db;fill-opacity:1" />
<path
   fill="#D54C3F"
   d="M14,50h-3c-1.657,0-3-1.343-3-3V17c0-1.657,1.343-3,3-3h0c1.657,0,3,1.343,3,3V50z"
   id="path4"
   style="fill:#b86302;fill-opacity:1" />
<path
   fill="#B63524"
   d="M50,50h3c1.657,0,3-1.343,3-3V17c0-1.657-1.343-3-3-3h0c-1.657,0-3,1.343-3,3V50z"
   id="path6"
   style="fill:#a25802;fill-opacity:1" />
<path
   fill="#DE5145"
   d="M54.718,19.46C55.493,18.917,56,18.018,56,17c0-1.657-1.343-3-3-3c-0.639,0-1.232,0.2-1.718,0.54  c0,0-19.28,14.037-19.28,14.037L32,28.578l-0.002-0.001L12.718,14.54C12.232,14.2,11.639,14,11,14c-1.657,0-3,1.343-3,3  c0,1.018,0.507,1.917,1.282,2.46l-0.08-0.059L32,36"
   id="path8"
   style="fill:#d87200;fill-opacity:1" />
<line
   fill="#DE5145"
   x1="54.799"
   y1="19.401"
   x2="32"
   y2="36"
   id="line10" />
<path
   fill="#EFEFEF"
   d="M53,14c-0.639,0-1.232,0.2-1.718,0.54c0,0-19.28,14.037-19.28,14.037L32,28.578l-0.002-0.001L12.718,14.54  C12.232,14.2,11.639,14,11,14L53,14z"
   id="path12"
   style="fill:#fed9af;fill-opacity:1" />
<path
   fill="#C64132"
   d="M14.001,24.188L8.945,19.18l-0.002,0.004c0.106,0.1,0.219,0.192,0.339,0.276l-0.08-0.059l4.8,3.495  l-0.001,1.328"
   id="path14"
   style="fill:#a25802;fill-opacity:1" />
<polyline
   fill="#E3E3E3"
   points="28.668,38.591 14,50 14.001,24.063 28.665,38.587 "
   id="polyline16"
   style="fill:#e5f1e5;fill-opacity:1" />
<linearGradient
   id="SVGID_1_"
   gradientUnits="userSpaceOnUse"
   x1="14.0005"
   y1="30.7436"
   x2="32"
   y2="30.7436">
	<stop
   offset="0"
   style="stop-color:#C8C8C8"
   id="stop18" />
	<stop
   offset="1"
   style="stop-color:#CDCDCD"
   id="stop20" />
</linearGradient>
<polygon
   fill="url(#SVGID_1_)"
   points="28.668,38.591 32,36 14.001,22.896 14.001,24.063 28.665,38.587 "
   id="polygon23"
   style="fill:#c6e8c6;fill-opacity:1" />
<linearGradient
   id="SVGID_2_"
   gradientUnits="userSpaceOnUse"
   x1="28.6645"
   y1="36.4474"
   x2="50"
   y2="36.4474">
	<stop
   offset="0"
   style="stop-color:#D9D9D9"
   id="stop25" />
	<stop
   offset="1"
   style="stop-color:#E2E2E2"
   id="stop27" />
</linearGradient>
<polygon
   fill="url(#SVGID_2_)"
   points="40.061,50 50,50 50,22.895 32,36 28.665,38.587 "
   id="polygon30"
   style="fill:#cef0ce;fill-opacity:1" />
<path
   style="fill:#008000;stroke-width:0.09878603;filter:url(#filter1517)"
   d="m 40.719107,47.155617 c -0.05433,-0.02034 -0.33697,-0.110498 -0.628083,-0.200381 -1.862677,-0.575093 -2.232546,-1.888891 -0.906964,-3.22159 0.667249,-0.670832 1.251032,-1.021518 2.30884,-1.386942 0.793108,-0.273986 0.807307,-0.284694 0.837677,-0.631833 l 0.03088,-0.353121 -0.336484,0.14059 c -1.685398,0.704207 -3.114341,0.195494 -3.33874,-1.188613 -0.181606,-1.120165 0.395008,-2.794118 1.260653,-3.65976 0.239908,-0.239908 0.734068,-0.577311 1.098132,-0.749783 0.585135,-0.277201 0.761254,-0.313589 1.517892,-0.313589 0.803342,0 0.883503,0.01942 1.304195,0.315694 0.246533,0.173634 0.60071,0.344298 0.787061,0.379257 0.409935,0.0769 0.939791,0.385722 1.019875,0.594423 0.03252,0.08475 -0.271937,0.861526 -0.687055,1.752882 -0.754449,1.619988 -1.254914,2.902794 -1.254914,3.21663 0,0.139025 0.182092,0.205775 0.955282,0.350178 1.082746,0.202214 3.682853,0.887846 4.07207,1.073781 0.350914,0.167632 0.394093,0.530387 0.08016,0.673422 -0.198124,0.09028 -0.492702,0.03782 -1.67458,-0.298149 -1.705268,-0.484766 -2.656776,-0.694507 -3.161271,-0.696841 l -0.370447,-0.0018 v 1.068719 c 0,2.199286 -0.613031,3.087411 -2.173292,3.148549 -0.353161,0.01385 -0.686564,0.0085 -0.740896,-0.01184 z m 1.095125,-0.991388 c 0.433573,-0.284089 0.604119,-0.692941 0.676847,-1.622634 0.03726,-0.476473 0.03935,-0.979556 0.0046,-1.117958 -0.05651,-0.225131 -0.09644,-0.24414 -0.379001,-0.18041 -0.584604,0.131847 -1.465342,0.500362 -1.883568,0.788109 -0.743558,0.511581 -0.977565,1.508027 -0.446772,1.902445 0.634056,0.471145 1.508814,0.570554 2.027881,0.230448 z m 0.0842,-5.528763 c 0.764919,-0.230205 1.190071,-0.578117 1.647617,-1.348283 0.313447,-0.527608 0.429537,-0.837848 0.462568,-1.236146 0.05403,-0.651413 -0.106911,-0.937496 -0.69663,-1.238345 -1.146901,-0.585107 -2.670025,0.08542 -3.351125,1.475271 -0.330199,0.6738 -0.327646,1.775255 0.005,2.129656 0.351777,0.374859 1.122331,0.461714 1.932637,0.217847 z m -5.068038,0.206852 c -0.276415,-0.33306 0.961823,-0.85688 1.320966,-0.558818 0.192439,0.15971 0.03637,0.368402 -0.417351,0.55806 -0.404949,0.169268 -0.763512,0.169571 -0.903615,7.35e-4 z m -0.704832,-2.5845 c -0.221551,-0.266952 0.05198,-0.444535 0.684718,-0.444535 0.670164,0 1.01289,0.184493 0.805946,0.433846 -0.179545,0.216338 -1.313243,0.22447 -1.490664,0.01074 z m 9.705728,-0.312387 c -0.203436,-0.08209 -0.139798,-0.413263 0.110987,-0.577583 0.366221,-0.239958 1.174441,-0.304733 1.338324,-0.107265 0.113648,0.136931 0.109181,0.188496 -0.02957,0.341814 -0.262252,0.289784 -1.068772,0.48465 -1.419745,0.343029 z m -8.493211,-2.111208 c -0.732016,-0.405971 -0.960827,-0.654385 -0.855514,-0.928827 0.123659,-0.322247 0.49335,-0.283413 1.30075,0.136641 0.828151,0.430851 1.127734,0.780959 0.901509,1.053544 -0.192149,0.231528 -0.601117,0.152158 -1.346745,-0.261358 z m 7.625362,0.195296 c -0.151298,-0.244808 0.08817,-0.607199 0.714591,-1.081417 0.36252,-0.274438 0.765785,-0.525747 0.896137,-0.558461 0.306507,-0.07692 0.561179,0.164121 0.471597,0.446369 -0.06689,0.210761 -0.919152,0.984044 -1.306768,1.185672 -0.271185,0.14106 -0.690597,0.145301 -0.775557,0.0078 z m -4.917388,-0.978342 c -0.37676,-0.447758 -0.605793,-1.120056 -0.468783,-1.376065 0.228505,-0.426965 0.592451,-0.221954 0.982155,0.55324 0.234743,0.466952 0.266851,0.820424 0.09053,0.996738 -0.185799,0.185797 -0.33815,0.141923 -0.60391,-0.173913 z m 2.615245,-0.650659 c -0.257745,-0.565692 -0.03903,-1.822896 0.317121,-1.822896 0.07169,0 0.203902,0.08129 0.29382,0.180656 0.189251,0.209118 0.231518,1.384585 0.06123,1.702773 -0.14932,0.279008 -0.533217,0.244435 -0.672168,-0.06053 z"
   id="path1406"
   inkscape:connector-curvature="0" /></svg>